<svg xmlns="http://www.w3.org/2000/svg" xmlns:xlink="http://www.w3.org/1999/xlink" contentStyleType="text/css" data-diagram-type="ACTIVITY" height="388px" preserveAspectRatio="none" style="width:341px;height:388px;background:#FFFFFF;" version="1.1" viewBox="0 0 341 388" width="341px" zoomAndPan="magnify"><?plantuml 1.2026.6?><defs/><g><ellipse cx="176.23" cy="20" fill="#FFFFFF" rx="10" ry="10" style="stroke:#000000;stroke-width:1;"/><rect fill="#E8EDF8" height="35.7993" rx="12.5" ry="12.5" style="stroke:#5C78C8;stroke-width:1;" width="51.6113" x="150.4243" y="50"/><text fill="#000000" font-family="Verdana" font-size="13" lengthAdjust="spacing" textLength="31.6113" x="160.4243" y="73.0698">i = 0</text><polygon fill="#E8EDF8" points="151.5598,169.5986,200.9002,169.5986,212.9002,181.5986,200.9002,193.5986,151.5598,193.5986,139.5598,181.5986,151.5598,169.5986" style="stroke:#5C78C8;stroke-width:1;stroke-linejoin:miter;stroke-miterlimit:10;"/><text fill="#000000" font-family="Verdana" font-size="13" lengthAdjust="spacing" textLength="49.3403" x="151.5598" y="186.7688">i == 3?</text><text fill="#000000" font-family="Verdana" font-size="13" lengthAdjust="spacing" textLength="22.2104" x="117.3494" y="178.8691">yes</text><text fill="#000000" font-family="Verdana" font-size="13" lengthAdjust="spacing" textLength="16.1167" x="212.9002" y="178.8691">no</text><path d="M121.8926,208.5986 L121.8926,217.4983 L101.8926,221.4983 L121.8926,225.4983 L121.8926,234.3979 A0,0 0 0 0 121.8926,234.3979 L230.7482,234.3979 A0,0 0 0 0 230.7482,234.3979 L230.7482,218.5986 L220.7482,208.5986 L121.8926,208.5986 A0,0 0 0 0 121.8926,208.5986" fill="#FFFFFF" style="stroke:#000000;stroke-width:1;"/><path d="M220.7482,208.5986 L220.7482,218.5986 L230.7482,218.5986 L220.7482,208.5986" fill="#FFFFFF" style="stroke:#000000;stroke-width:1;"/><text fill="#000000" font-family="Verdana" font-size="13" lengthAdjust="spacing" textLength="87.8556" x="127.8926" y="226.6685">&#48152;&#48373;&#47928; &#51593;&#49884; &#51333;&#47308;</text><rect fill="#E8EDF8" height="35.7993" rx="12.5" ry="12.5" style="stroke:#5C78C8;stroke-width:1;" width="56.8926" x="45" y="203.5986"/><text fill="#000000" font-family="Verdana" font-size="13" lengthAdjust="spacing" textLength="36.8926" x="55" y="226.6685">break</text><ellipse cx="73.4463" cy="283.2976" fill="none" rx="11" ry="11" style="stroke:#000000;stroke-width:1;"/><ellipse cx="73.4463" cy="283.2976" fill="#FFFFFF" rx="6" ry="6" style="stroke:#000000;stroke-width:1;"/><rect fill="#E8EDF8" height="35.7993" rx="12.5" ry="12.5" style="stroke:#5C78C8;stroke-width:1;" width="56.531" x="240.7482" y="203.5986"/><text fill="#000000" font-family="Verdana" font-size="13" lengthAdjust="spacing" textLength="36.531" x="250.7482" y="226.6685">&#52636;&#47141;: i</text><rect fill="#E8EDF8" height="35.7993" rx="12.5" ry="12.5" style="stroke:#5C78C8;stroke-width:1;" width="44.8447" x="153.8076" y="314.2976"/><text fill="#000000" font-family="Verdana" font-size="13" lengthAdjust="spacing" textLength="24.8447" x="163.8076" y="337.3674">i++</text><polygon fill="#E8EDF8" points="156.8792,105.7993,195.5808,105.7993,207.5808,117.7993,195.5808,129.7993,156.8792,129.7993,144.8792,117.7993,156.8792,105.7993" style="stroke:#5C78C8;stroke-width:1;stroke-linejoin:miter;stroke-miterlimit:10;"/><text fill="#000000" font-family="Verdana" font-size="13" lengthAdjust="spacing" textLength="26.6411" x="180.23" y="142.8691">true</text><text fill="#000000" font-family="Verdana" font-size="13" lengthAdjust="spacing" textLength="38.7017" x="156.8792" y="122.9695">i &lt; 5?</text><text fill="#000000" font-family="Verdana" font-size="13" lengthAdjust="spacing" textLength="30.4624" x="114.4168" y="115.0698">false</text><ellipse cx="24" cy="164.7993" fill="none" rx="11" ry="11" style="stroke:#000000;stroke-width:1;"/><ellipse cx="24" cy="164.7993" fill="#FFFFFF" rx="6" ry="6" style="stroke:#000000;stroke-width:1;"/><line style="stroke:#333333;stroke-width:1;" x1="176.23" x2="176.23" y1="30" y2="50"/><polygon fill="#333333" points="172.23,40,176.23,50,180.23,40,176.23,44" style="stroke:#333333;stroke-width:1;stroke-linejoin:miter;stroke-miterlimit:10;"/><line style="stroke:#333333;stroke-width:1;" x1="73.4463" x2="73.4463" y1="239.3979" y2="272.2976"/><polygon fill="#333333" points="69.4463,262.2976,73.4463,272.2976,77.4463,262.2976,73.4463,266.2976" style="stroke:#333333;stroke-width:1;stroke-linejoin:miter;stroke-miterlimit:10;"/><line style="stroke:#333333;stroke-width:1;" x1="139.5598" x2="73.4463" y1="181.5986" y2="181.5986"/><line style="stroke:#333333;stroke-width:1;" x1="73.4463" x2="73.4463" y1="181.5986" y2="203.5986"/><polygon fill="#333333" points="69.4463,193.5986,73.4463,203.5986,77.4463,193.5986,73.4463,197.5986" style="stroke:#333333;stroke-width:1;stroke-linejoin:miter;stroke-miterlimit:10;"/><line style="stroke:#333333;stroke-width:1;" x1="212.9002" x2="269.0137" y1="181.5986" y2="181.5986"/><line style="stroke:#333333;stroke-width:1;" x1="269.0137" x2="269.0137" y1="181.5986" y2="203.5986"/><polygon fill="#333333" points="265.0137,193.5986,269.0137,203.5986,273.0137,193.5986,269.0137,197.5986" style="stroke:#333333;stroke-width:1;stroke-linejoin:miter;stroke-miterlimit:10;"/><line style="stroke:#333333;stroke-width:1;" x1="269.0137" x2="269.0137" y1="239.3979" y2="299.2976"/><line style="stroke:#333333;stroke-width:1;" x1="269.0137" x2="176.23" y1="299.2976" y2="299.2976"/><line style="stroke:#333333;stroke-width:1;" x1="176.23" x2="176.23" y1="299.2976" y2="314.2976"/><polygon fill="#333333" points="172.23,304.2976,176.23,314.2976,180.23,304.2976,176.23,308.2976" style="stroke:#333333;stroke-width:1;stroke-linejoin:miter;stroke-miterlimit:10;"/><line style="stroke:#333333;stroke-width:1;" x1="176.23" x2="176.23" y1="129.7993" y2="169.5986"/><polygon fill="#333333" points="172.23,159.5986,176.23,169.5986,180.23,159.5986,176.23,163.5986" style="stroke:#333333;stroke-width:1;stroke-linejoin:miter;stroke-miterlimit:10;"/><line style="stroke:#333333;stroke-width:1;" x1="176.23" x2="176.23" y1="350.0969" y2="360.0969"/><line style="stroke:#333333;stroke-width:1;" x1="176.23" x2="311.2792" y1="360.0969" y2="360.0969"/><polygon fill="#333333" points="307.2792,259.3979,311.2792,249.3979,315.2792,259.3979,311.2792,255.3979" style="stroke:#333333;stroke-width:1;stroke-linejoin:miter;stroke-miterlimit:10;"/><line style="stroke:#333333;stroke-width:1;" x1="311.2792" x2="311.2792" y1="117.7993" y2="360.0969"/><line style="stroke:#333333;stroke-width:1;" x1="311.2792" x2="207.5808" y1="117.7993" y2="117.7993"/><polygon fill="#333333" points="217.5808,113.7993,207.5808,117.7993,217.5808,121.7993,213.5808,117.7993" style="stroke:#333333;stroke-width:1;stroke-linejoin:miter;stroke-miterlimit:10;"/><line style="stroke:#333333;stroke-width:1;" x1="144.8792" x2="24" y1="117.7993" y2="117.7993"/><line style="stroke:#333333;stroke-width:1;" x1="24" x2="24" y1="117.7993" y2="153.7993"/><polygon fill="#333333" points="20,143.7993,24,153.7993,28,143.7993,24,147.7993" style="stroke:#333333;stroke-width:1;stroke-linejoin:miter;stroke-miterlimit:10;"/><line style="stroke:#333333;stroke-width:1;" x1="176.23" x2="176.23" y1="85.7993" y2="105.7993"/><polygon fill="#333333" points="172.23,95.7993,176.23,105.7993,180.23,95.7993,176.23,99.7993" style="stroke:#333333;stroke-width:1;stroke-linejoin:miter;stroke-miterlimit:10;"/><?plantuml-src XP31IiD048Rl-nGZNX9wKK8n90RHj7q1ds1j9isGP3ViRYprxa7q0Jpq88gUF0XYwJib3-4cH6YXu5nsTlzl_t-O8vDXYL0Ld0JJEOcAArx215DU5sOcXRccEuHJRqUyd1kw9REwulDyeMGjabWMKi7nr9zEPluXKge4rK2DupC_tgEKaij1zFhQdOHuAKNoVzOVU22AQSELOG5112SXMsPK83W4vp2-S84qE4RLw380IhltA0BF2dOr0fmLwau126uKyZpiUo4DWg95PW9elfwRxv_cSmljnqFxk8RszRvvU-evRMHb6ooq3HHoC6etw-RbFG3gp50abDepeD4ePFOsZ9To-ybbdSCl?></g></svg>