<svg xmlns="http://www.w3.org/2000/svg" xmlns:xlink="http://www.w3.org/1999/xlink" contentStyleType="text/css" data-diagram-type="ACTIVITY" height="242px" preserveAspectRatio="none" style="width:391px;height:242px;background:#FFFFFF;" version="1.1" viewBox="0 0 391 242" width="391px" zoomAndPan="magnify"><?plantuml 1.2026.6?><defs/><g><ellipse cx="193.2922" cy="20" fill="#FFFFFF" rx="10" ry="10" style="stroke:#000000;stroke-width:1;"/><polygon fill="#E8EDF8" points="177.9468,50,208.6377,50,220.6377,62,208.6377,74,177.9468,74,165.9468,62,177.9468,50" style="stroke:#5C78C8;stroke-width:1;stroke-linejoin:miter;stroke-miterlimit:10;"/><text fill="#000000" font-family="Verdana" font-size="13" lengthAdjust="spacing" textLength="30.6909" x="177.9468" y="67.1702">day?</text><rect fill="#E8EDF8" height="35.7993" rx="12.5" ry="12.5" style="stroke:#5C78C8;stroke-width:1;" width="80.7953" x="11" y="115.4695"/><text fill="#000000" font-family="Verdana" font-size="13" lengthAdjust="spacing" textLength="60.7953" x="21" y="138.5393">&#50900;&#50836;&#51068; &#52636;&#47141;</text><rect fill="#E8EDF8" height="35.7993" rx="12.5" ry="12.5" style="stroke:#5C78C8;stroke-width:1;" width="80.7953" x="101.7953" y="115.4695"/><text fill="#000000" font-family="Verdana" font-size="13" lengthAdjust="spacing" textLength="60.7953" x="111.7953" y="138.5393">&#54868;&#50836;&#51068; &#52636;&#47141;</text><rect fill="#E8EDF8" height="35.7993" rx="12.5" ry="12.5" style="stroke:#5C78C8;stroke-width:1;" width="80.7953" x="202.5906" y="115.4695"/><text fill="#000000" font-family="Verdana" font-size="13" lengthAdjust="spacing" textLength="60.7953" x="212.5906" y="138.5393">&#49688;&#50836;&#51068; &#52636;&#47141;</text><rect fill="#E8EDF8" height="35.7993" rx="12.5" ry="12.5" style="stroke:#5C78C8;stroke-width:1;" width="74.1206" x="293.3859" y="115.4695"/><text fill="#000000" font-family="Verdana" font-size="13" lengthAdjust="spacing" textLength="54.1206" x="303.3859" y="138.5393">&#44536; &#50808; &#52636;&#47141;</text><polygon fill="#E8EDF8" points="193.2922,161.2688,193.2922,161.2688,205.2922,173.2688,193.2922,185.2688,193.2922,185.2688,181.2922,173.2688,193.2922,161.2688" style="stroke:#5C78C8;stroke-width:1;stroke-linejoin:miter;stroke-miterlimit:10;"/><ellipse cx="193.2922" cy="216.2688" fill="none" rx="11" ry="11" style="stroke:#000000;stroke-width:1;"/><ellipse cx="193.2922" cy="216.2688" fill="#FFFFFF" rx="6" ry="6" style="stroke:#000000;stroke-width:1;"/><line style="stroke:#333333;stroke-width:1;" x1="165.9468" x2="51.3977" y1="62" y2="62"/><line style="stroke:#333333;stroke-width:1;" x1="51.3977" x2="51.3977" y1="62" y2="115.4695"/><polygon fill="#333333" points="47.3977,105.4695,51.3977,115.4695,55.3977,105.4695,51.3977,109.4695" style="stroke:#333333;stroke-width:1;stroke-linejoin:miter;stroke-miterlimit:10;"/><text fill="#000000" font-family="Verdana" font-size="13" lengthAdjust="spacing" textLength="8.2646" x="51.3977" y="93.9695">1</text><line style="stroke:#333333;stroke-width:1;" x1="220.6377" x2="330.4462" y1="62" y2="62"/><line style="stroke:#333333;stroke-width:1;" x1="330.4462" x2="330.4462" y1="62" y2="115.4695"/><polygon fill="#333333" points="326.4462,105.4695,330.4462,115.4695,334.4462,105.4695,330.4462,109.4695" style="stroke:#333333;stroke-width:1;stroke-linejoin:miter;stroke-miterlimit:10;"/><text fill="#000000" font-family="Verdana" font-size="13" lengthAdjust="spacing" textLength="45.1382" x="330.4462" y="93.9695">default</text><line style="stroke:#333333;stroke-width:1;" x1="142.193" x2="142.193" y1="62" y2="115.4695"/><polygon fill="#333333" points="138.193,105.4695,142.193,115.4695,146.193,105.4695,142.193,109.4695" style="stroke:#333333;stroke-width:1;stroke-linejoin:miter;stroke-miterlimit:10;"/><text fill="#000000" font-family="Verdana" font-size="13" lengthAdjust="spacing" textLength="8.2646" x="142.193" y="88.9695">2</text><line style="stroke:#333333;stroke-width:1;" x1="242.9883" x2="242.9883" y1="62" y2="115.4695"/><polygon fill="#333333" points="238.9883,105.4695,242.9883,115.4695,246.9883,105.4695,242.9883,109.4695" style="stroke:#333333;stroke-width:1;stroke-linejoin:miter;stroke-miterlimit:10;"/><text fill="#000000" font-family="Verdana" font-size="13" lengthAdjust="spacing" textLength="8.2646" x="242.9883" y="88.9695">3</text><line style="stroke:#333333;stroke-width:1;" x1="51.3977" x2="51.3977" y1="151.2688" y2="173.2688"/><line style="stroke:#333333;stroke-width:1;" x1="51.3977" x2="181.2922" y1="173.2688" y2="173.2688"/><polygon fill="#333333" points="171.2922,169.2688,181.2922,173.2688,171.2922,177.2688,175.2922,173.2688" style="stroke:#333333;stroke-width:1;stroke-linejoin:miter;stroke-miterlimit:10;"/><line style="stroke:#333333;stroke-width:1;" x1="330.4462" x2="330.4462" y1="151.2688" y2="173.2688"/><line style="stroke:#333333;stroke-width:1;" x1="330.4462" x2="205.2922" y1="173.2688" y2="173.2688"/><polygon fill="#333333" points="215.2922,169.2688,205.2922,173.2688,215.2922,177.2688,211.2922,173.2688" style="stroke:#333333;stroke-width:1;stroke-linejoin:miter;stroke-miterlimit:10;"/><line style="stroke:#333333;stroke-width:1;" x1="142.193" x2="142.193" y1="151.2688" y2="173.2688"/><polygon fill="#333333" points="138.193,163.2688,142.193,173.2688,146.193,163.2688,142.193,167.2688" style="stroke:#333333;stroke-width:1;stroke-linejoin:miter;stroke-miterlimit:10;"/><line style="stroke:#333333;stroke-width:1;" x1="242.9883" x2="242.9883" y1="151.2688" y2="173.2688"/><polygon fill="#333333" points="238.9883,163.2688,242.9883,173.2688,246.9883,163.2688,242.9883,167.2688" style="stroke:#333333;stroke-width:1;stroke-linejoin:miter;stroke-miterlimit:10;"/><line style="stroke:#333333;stroke-width:1;" x1="193.2922" x2="193.2922" y1="30" y2="50"/><polygon fill="#333333" points="189.2922,40,193.2922,50,197.2922,40,193.2922,44" style="stroke:#333333;stroke-width:1;stroke-linejoin:miter;stroke-miterlimit:10;"/><line style="stroke:#333333;stroke-width:1;" x1="193.2922" x2="193.2922" y1="185.2688" y2="205.2688"/><polygon fill="#333333" points="189.2922,195.2688,193.2922,205.2688,197.2922,195.2688,193.2922,199.2688" style="stroke:#333333;stroke-width:1;stroke-linejoin:miter;stroke-miterlimit:10;"/><?plantuml-src XP1F3i505CRtSuedDhga4GqBeRY04xnq1XFjJ3CTX1CuW8NwazYu0XPEnBW3QKj8cdZRt-_Bz-KLz8W5348VkI3Hc8iG5GRGOGES-BedXUxp1OEo_GLRdkPJhkTjzCP39IU2kjAN2efTfzlfENccL9IfpAgwDSVziPIIimpQoNqluHX8GVztlSMSAX9fL9f4Cwwz4PGepfiMyJ1YK2fR1A1kjYkpMPdz5SnfTpyS6ncj9FGHvrCxpIxNkPIcBqoSs_a29hvy32PeEkQrJ8PF?></g></svg>