<svg xmlns="http://www.w3.org/2000/svg" xmlns:xlink="http://www.w3.org/1999/xlink" contentStyleType="text/css" data-diagram-type="DESCRIPTION" height="132px" preserveAspectRatio="none" style="width:626px;height:132px;background:#FFFFFF;" version="1.1" viewBox="0 0 626 132" width="626px" zoomAndPan="magnify"><?plantuml 1.2026.6?><defs/><g><!--entity byte--><g class="entity" data-qualified-name="byte" data-source-line="10" id="ent0001"><rect fill="#E8EDF8" height="35.7993" rx="2.5" ry="2.5" style="stroke:#5C78C8;stroke-width:1;" width="48.6597" x="12" y="12"/><text fill="#000000" font-family="Verdana" font-size="13" lengthAdjust="spacing" textLength="28.6597" x="22" y="35.0698">byte</text></g><!--entity short--><g class="entity" data-qualified-name="short" data-source-line="11" id="ent0002"><rect fill="#E8EDF8" height="35.7993" rx="2.5" ry="2.5" style="stroke:#5C78C8;stroke-width:1;" width="53.5601" x="120.66" y="12"/><text fill="#000000" font-family="Verdana" font-size="13" lengthAdjust="spacing" textLength="33.5601" x="130.66" y="35.0698">short</text></g><!--entity int--><g class="entity" data-qualified-name="int" data-source-line="12" id="ent0003"><rect fill="#E8EDF8" height="35.7993" rx="2.5" ry="2.5" style="stroke:#5C78C8;stroke-width:1;" width="36.9165" x="234.22" y="12"/><text fill="#000000" font-family="Verdana" font-size="13" lengthAdjust="spacing" textLength="16.9165" x="244.22" y="35.0698">int</text></g><!--entity long--><g class="entity" data-qualified-name="long" data-source-line="13" id="ent0004"><rect fill="#E8EDF8" height="35.7993" rx="2.5" ry="2.5" style="stroke:#5C78C8;stroke-width:1;" width="47.7837" x="331.42" y="12"/><text fill="#000000" font-family="Verdana" font-size="13" lengthAdjust="spacing" textLength="27.7837" x="341.42" y="35.0698">long</text></g><!--entity float--><g class="entity" data-qualified-name="float" data-source-line="14" id="ent0005"><rect fill="#E8EDF8" height="35.7993" rx="2.5" ry="2.5" style="stroke:#5C78C8;stroke-width:1;" width="48.958" x="439.49" y="48"/><text fill="#000000" font-family="Verdana" font-size="13" lengthAdjust="spacing" textLength="28.958" x="449.49" y="71.0698">float</text></g><!--entity double--><g class="entity" data-qualified-name="double" data-source-line="15" id="ent0006"><rect fill="#E8EDF8" height="35.7993" rx="2.5" ry="2.5" style="stroke:#5C78C8;stroke-width:1;" width="63.6274" x="548.45" y="48"/><text fill="#000000" font-family="Verdana" font-size="13" lengthAdjust="spacing" textLength="43.6274" x="558.45" y="71.0698">double</text></g><!--entity char--><g class="entity" data-qualified-name="char" data-source-line="16" id="ent0007"><rect fill="#E8EDF8" height="35.7993" rx="2.5" ry="2.5" style="stroke:#5C78C8;stroke-width:1;" width="48.355" x="331.14" y="83"/><text fill="#000000" font-family="Verdana" font-size="13" lengthAdjust="spacing" textLength="28.355" x="341.14" y="106.0698">char</text></g><!--link byte to short--><g class="link" data-entity-1="ent0001" data-entity-2="ent0002" data-link-type="dependency" data-source-line="18" id="lnk8"><path d="M61.01,29.9 C78.55,29.9 97.46,29.9 115.52,29.9" fill="none" id="byte-to-short" style="stroke:#333333;stroke-width:1;"/><polygon fill="#333333" points="120.52,29.9,111.52,25.9,115.52,29.9,111.52,33.9,120.52,29.9" style="stroke:#333333;stroke-width:1;stroke-linejoin:miter;stroke-miterlimit:10;"/></g><!--link short to int--><g class="link" data-entity-1="ent0002" data-entity-2="ent0003" data-link-type="dependency" data-source-line="19" id="lnk9"><path d="M174.49,29.9 C193.01,29.9 212.4,29.9 228.76,29.9" fill="none" id="short-to-int" style="stroke:#333333;stroke-width:1;"/><polygon fill="#333333" points="233.76,29.9,224.76,25.9,228.76,29.9,224.76,33.9,233.76,29.9" style="stroke:#333333;stroke-width:1;stroke-linejoin:miter;stroke-miterlimit:10;"/></g><!--link int to long--><g class="link" data-entity-1="ent0003" data-entity-2="ent0004" data-link-type="dependency" data-source-line="20" id="lnk10"><path d="M271.21,29.9 C287.76,29.9 307.71,29.9 325.95,29.9" fill="none" id="int-to-long" style="stroke:#333333;stroke-width:1;"/><polygon fill="#333333" points="330.95,29.9,321.95,25.9,325.95,29.9,321.95,33.9,330.95,29.9" style="stroke:#333333;stroke-width:1;stroke-linejoin:miter;stroke-miterlimit:10;"/></g><!--link long to float--><g class="link" data-entity-1="ent0004" data-entity-2="ent0005" data-link-type="dependency" data-source-line="21" id="lnk11"><path d="M379.46,37.71 C397.1,43.67 416.5825,50.2413 434.3925,56.2513" fill="none" id="long-to-float" style="stroke:#333333;stroke-width:1;"/><polygon fill="#333333" points="439.13,57.85,431.8814,51.1823,434.3925,56.2513,429.3235,58.7624,439.13,57.85" style="stroke:#333333;stroke-width:1;stroke-linejoin:miter;stroke-miterlimit:10;"/></g><!--link float to double--><g class="link" data-entity-1="ent0005" data-entity-2="ent0006" data-link-type="dependency" data-source-line="22" id="lnk12"><path d="M488.93,65.9 C506.08,65.9 524.33,65.9 542.95,65.9" fill="none" id="float-to-double" style="stroke:#333333;stroke-width:1;"/><polygon fill="#333333" points="547.95,65.9,538.95,61.9,542.95,65.9,538.95,69.9,547.95,65.9" style="stroke:#333333;stroke-width:1;stroke-linejoin:miter;stroke-miterlimit:10;"/></g><!--link char to float--><g class="link" data-entity-1="ent0007" data-entity-2="ent0005" data-link-type="dependency" data-source-line="23" id="lnk13"><path d="M379.98,93.13 C397.54,87.37 416.6188,81.1077 434.2488,75.3277" fill="none" id="char-to-float" style="stroke:#333333;stroke-width:1;"/><polygon fill="#333333" points="439,73.77,429.2017,72.7729,434.2488,75.3277,431.694,80.3748,439,73.77" style="stroke:#333333;stroke-width:1;stroke-linejoin:miter;stroke-miterlimit:10;"/></g><?plantuml-src JOt12eCm38RlVOgCdJqC6VCqs9o-m9wWsbgBjP5O6TlOky_MWWqqzFiJlXnSBqS9a-7QCYCx1mw1jEeT24soTHejcmTj9qvy19zmguo4BuErxhmT5E5YHOa62OvLKJtgOfiX2KanFvUNejpo6grxwe-4Kyv-YVj6XA-udeTYRB_Nl9rCSEwHNCBQfcJGgWGxWpmT2rmQazhQdXDZ_WHasJNAGm_ivUiB_w3sBT1c3ZrmD7lVFly3?></g></svg>