<svg xmlns="http://www.w3.org/2000/svg" xmlns:xlink="http://www.w3.org/1999/xlink" contentStyleType="text/css" data-diagram-type="ACTIVITY" height="391px" preserveAspectRatio="none" style="width:349px;height:391px;background:#FFFFFF;" version="1.1" viewBox="0 0 349 391" width="349px" zoomAndPan="magnify"><?plantuml 1.2026.6?><defs/><g><ellipse cx="176.2704" cy="20" fill="#FFFFFF" rx="10" ry="10" style="stroke:#000000;stroke-width:1;"/><rect fill="#E8EDF8" height="35.7993" rx="12.5" ry="12.5" style="stroke:#5C78C8;stroke-width:1;" width="51.6113" x="150.4647" y="50"/><text fill="#000000" font-family="Verdana" font-size="13" lengthAdjust="spacing" textLength="31.6113" x="160.4647" y="73.0698">i = 0</text><polygon fill="#E8EDF8" points="57,194.5986,106.3403,194.5986,118.3403,206.5986,106.3403,218.5986,57,218.5986,45,206.5986,57,194.5986" style="stroke:#5C78C8;stroke-width:1;stroke-linejoin:miter;stroke-miterlimit:10;"/><text fill="#000000" font-family="Verdana" font-size="13" lengthAdjust="spacing" textLength="55.7769" x="85.6702" y="231.6685">continue</text><text fill="#000000" font-family="Verdana" font-size="13" lengthAdjust="spacing" textLength="49.3403" x="57" y="211.7688">i == 3?</text><polygon fill="#E8EDF8" points="169.447,194.5986,218.7874,194.5986,230.7874,206.5986,218.7874,218.5986,169.447,218.5986,157.447,206.5986,169.447,194.5986" style="stroke:#5C78C8;stroke-width:1;stroke-linejoin:miter;stroke-miterlimit:10;"/><text fill="#000000" font-family="Verdana" font-size="13" lengthAdjust="spacing" textLength="36.8926" x="198.1172" y="231.6685">break</text><text fill="#000000" font-family="Verdana" font-size="13" lengthAdjust="spacing" textLength="49.3403" x="169.447" y="211.7688">i == 6?</text><text fill="#000000" font-family="Verdana" font-size="13" lengthAdjust="spacing" textLength="22.49" x="230.7874" y="203.8691">&#44228;&#49549;</text><rect fill="#E8EDF8" height="35.7993" rx="12.5" ry="12.5" style="stroke:#5C78C8;stroke-width:1;" width="56.531" x="251.0098" y="234.5485"/><text fill="#000000" font-family="Verdana" font-size="13" lengthAdjust="spacing" textLength="36.531" x="261.0098" y="257.6183">&#52636;&#47141;: i</text><rect fill="#E8EDF8" height="35.7993" rx="12.5" ry="12.5" style="stroke:#5C78C8;stroke-width:1;" width="44.8447" x="153.848" y="317.9481"/><text fill="#000000" font-family="Verdana" font-size="13" lengthAdjust="spacing" textLength="24.8447" x="163.848" y="341.0179">i++</text><polygon fill="#E8EDF8" points="152.7872,105.7993,199.7535,105.7993,211.7535,117.7993,199.7535,129.7993,152.7872,129.7993,140.7872,117.7993,152.7872,105.7993" style="stroke:#5C78C8;stroke-width:1;stroke-linejoin:miter;stroke-miterlimit:10;"/><text fill="#000000" font-family="Verdana" font-size="13" lengthAdjust="spacing" textLength="26.6411" x="180.2704" y="142.8691">true</text><text fill="#000000" font-family="Verdana" font-size="13" lengthAdjust="spacing" textLength="46.9663" x="152.7872" y="122.9695">i &lt; 10?</text><text fill="#000000" font-family="Verdana" font-size="13" lengthAdjust="spacing" textLength="30.4624" x="110.3248" y="115.0698">false</text><ellipse cx="24" cy="164.7993" fill="none" rx="11" ry="11" style="stroke:#000000;stroke-width:1;"/><ellipse cx="24" cy="164.7993" fill="#FFFFFF" rx="6" ry="6" style="stroke:#000000;stroke-width:1;"/><line style="stroke:#333333;stroke-width:1;" x1="176.2704" x2="176.2704" y1="30" y2="50"/><polygon fill="#333333" points="172.2704,40,176.2704,50,180.2704,40,176.2704,44" style="stroke:#333333;stroke-width:1;stroke-linejoin:miter;stroke-miterlimit:10;"/><line style="stroke:#333333;stroke-width:1;" x1="81.6702" x2="81.6702" y1="218.5986" y2="297.9481"/><polygon fill="#333333" points="77.6702,287.9481,81.6702,297.9481,85.6702,287.9481,81.6702,291.9481" style="stroke:#333333;stroke-width:1;stroke-linejoin:miter;stroke-miterlimit:10;"/><line style="stroke:#333333;stroke-width:1;" x1="194.1172" x2="194.1172" y1="218.5986" y2="297.9481"/><polygon fill="#333333" points="190.1172,287.9481,194.1172,297.9481,198.1172,287.9481,194.1172,291.9481" style="stroke:#333333;stroke-width:1;stroke-linejoin:miter;stroke-miterlimit:10;"/><line style="stroke:#333333;stroke-width:1;" x1="118.3403" x2="157.447" y1="206.5986" y2="206.5986"/><polygon fill="#333333" points="147.447,202.5986,157.447,206.5986,147.447,210.5986,151.447,206.5986" style="stroke:#333333;stroke-width:1;stroke-linejoin:miter;stroke-miterlimit:10;"/><line style="stroke:#333333;stroke-width:1;" x1="176.2704" x2="176.2704" y1="129.7993" y2="169.5986"/><line style="stroke:#333333;stroke-width:1;" x1="176.2704" x2="81.6702" y1="169.5986" y2="169.5986"/><line style="stroke:#333333;stroke-width:1;" x1="81.6702" x2="81.6702" y1="169.5986" y2="194.5986"/><polygon fill="#333333" points="77.6702,184.5986,81.6702,194.5986,85.6702,184.5986,81.6702,188.5986" style="stroke:#333333;stroke-width:1;stroke-linejoin:miter;stroke-miterlimit:10;"/><line style="stroke:#333333;stroke-width:1;" x1="230.7874" x2="279.2753" y1="206.5986" y2="206.5986"/><line style="stroke:#333333;stroke-width:1;" x1="279.2753" x2="279.2753" y1="206.5986" y2="234.5485"/><polygon fill="#333333" points="275.2753,224.5485,279.2753,234.5485,283.2753,224.5485,279.2753,228.5485" style="stroke:#333333;stroke-width:1;stroke-linejoin:miter;stroke-miterlimit:10;"/><line style="stroke:#333333;stroke-width:1;" x1="279.2753" x2="279.2753" y1="270.3478" y2="297.9481"/><polygon fill="#333333" points="275.2753,287.9481,279.2753,297.9481,283.2753,287.9481,279.2753,291.9481" style="stroke:#333333;stroke-width:1;stroke-linejoin:miter;stroke-miterlimit:10;"/><line style="stroke:#333333;stroke-width:1;" x1="81.6702" x2="279.2753" y1="297.9481" y2="297.9481"/><line style="stroke:#333333;stroke-width:1;" x1="176.2704" x2="176.2704" y1="297.9481" y2="317.9481"/><polygon fill="#333333" points="172.2704,307.9481,176.2704,317.9481,180.2704,307.9481,176.2704,311.9481" style="stroke:#333333;stroke-width:1;stroke-linejoin:miter;stroke-miterlimit:10;"/><line style="stroke:#333333;stroke-width:1;" x1="176.2704" x2="176.2704" y1="353.7474" y2="363.7474"/><line style="stroke:#333333;stroke-width:1;" x1="176.2704" x2="319.5408" y1="363.7474" y2="363.7474"/><polygon fill="#333333" points="315.5408,277.9481,319.5408,267.9481,323.5408,277.9481,319.5408,273.9481" style="stroke:#333333;stroke-width:1;stroke-linejoin:miter;stroke-miterlimit:10;"/><line style="stroke:#333333;stroke-width:1;" x1="319.5408" x2="319.5408" y1="117.7993" y2="363.7474"/><line style="stroke:#333333;stroke-width:1;" x1="319.5408" x2="211.7535" y1="117.7993" y2="117.7993"/><polygon fill="#333333" points="221.7535,113.7993,211.7535,117.7993,221.7535,121.7993,217.7535,117.7993" style="stroke:#333333;stroke-width:1;stroke-linejoin:miter;stroke-miterlimit:10;"/><line style="stroke:#333333;stroke-width:1;" x1="140.7872" x2="24" y1="117.7993" y2="117.7993"/><line style="stroke:#333333;stroke-width:1;" x1="24" x2="24" y1="117.7993" y2="153.7993"/><polygon fill="#333333" points="20,143.7993,24,153.7993,28,143.7993,24,147.7993" style="stroke:#333333;stroke-width:1;stroke-linejoin:miter;stroke-miterlimit:10;"/><line style="stroke:#333333;stroke-width:1;" x1="176.2704" x2="176.2704" y1="85.7993" y2="105.7993"/><polygon fill="#333333" points="172.2704,95.7993,176.2704,105.7993,180.2704,95.7993,176.2704,99.7993" style="stroke:#333333;stroke-width:1;stroke-linejoin:miter;stroke-miterlimit:10;"/><?plantuml-src XP3DJW8n54RtynIVSJE43OIeP71Yb9yNy0agqu4RXfPqYaHNBj1Wr9qB5vWOYCQb2lfGT7m7Yum48udTDCqvzxkzTqCtUPkZ4p4IJjmYqM6AjL7X8Uj6kYQ5FgHJZdnX1UxNDHsJFZbWzLP3oQu8oZAI2flLOhLIAwupfGguIgsjyawn_CjIIlPIMFW-gpyXrfOY-B_NZxYcbHDhfhJZ4NpaIawlIH67IzX5FhUN0SLmjUhoZ0DGE0U-Zu85TZS2RjqkWSG20q9g3aMDflQGt4_Dsm3cvSvCtZ5xdPh-m0pFhCUZc2-ZjfTHHugprjySCtx-lEqZURfCheP8HkTcV9s6m9rD-id5pQB8Ipw6vk7H0vNcN0GKsjkZRBRas5SwMCXiOSOEBJjV?></g></svg>