<svg xmlns="http://www.w3.org/2000/svg" xmlns:xlink="http://www.w3.org/1999/xlink" contentStyleType="text/css" data-diagram-type="ACTIVITY" height="368px" preserveAspectRatio="none" style="width:330px;height:368px;background:#FFFFFF;" version="1.1" viewBox="0 0 330 368" width="330px" zoomAndPan="magnify"><?plantuml 1.2026.6?><defs/><g><ellipse cx="167.1941" cy="20" fill="#FFFFFF" rx="10" ry="10" style="stroke:#000000;stroke-width:1;"/><rect fill="#E8EDF8" height="35.7993" rx="12.5" ry="12.5" style="stroke:#5C78C8;stroke-width:1;" width="51.6113" x="141.3884" y="50"/><text fill="#000000" font-family="Verdana" font-size="13" lengthAdjust="spacing" textLength="31.6113" x="151.3884" y="73.0698">i = 0</text><polygon fill="#E8EDF8" points="142.5239,169.5986,191.8643,169.5986,203.8643,181.5986,191.8643,193.5986,142.5239,193.5986,130.5239,181.5986,142.5239,169.5986" style="stroke:#5C78C8;stroke-width:1;stroke-linejoin:miter;stroke-miterlimit:10;"/><text fill="#000000" font-family="Verdana" font-size="13" lengthAdjust="spacing" textLength="49.3403" x="142.5239" y="186.7688">i == 3?</text><text fill="#000000" font-family="Verdana" font-size="13" lengthAdjust="spacing" textLength="22.2104" x="108.3135" y="178.8691">yes</text><text fill="#000000" font-family="Verdana" font-size="13" lengthAdjust="spacing" textLength="16.1167" x="203.8643" y="178.8691">no</text><path d="M109.8447,208.5986 L109.8447,217.4983 L89.8447,221.4983 L109.8447,225.4983 L109.8447,234.3979 A0,0 0 0 0 109.8447,234.3979 L218.7004,234.3979 A0,0 0 0 0 218.7004,234.3979 L218.7004,218.5986 L208.7004,208.5986 L109.8447,208.5986 A0,0 0 0 0 109.8447,208.5986" fill="#FFFFFF" style="stroke:#000000;stroke-width:1;"/><path d="M208.7004,208.5986 L208.7004,218.5986 L218.7004,218.5986 L208.7004,208.5986" fill="#FFFFFF" style="stroke:#000000;stroke-width:1;"/><text fill="#000000" font-family="Verdana" font-size="13" lengthAdjust="spacing" textLength="87.8556" x="115.8447" y="226.6685">&#51060;&#48264; &#48152;&#48373; &#44148;&#45320;&#46848;</text><rect fill="#E8EDF8" height="35.7993" rx="12.5" ry="12.5" style="stroke:#5C78C8;stroke-width:1;" width="44.8447" x="45" y="203.5986"/><text fill="#000000" font-family="Verdana" font-size="13" lengthAdjust="spacing" textLength="24.8447" x="55" y="226.6685">i++</text><rect fill="#E8EDF8" height="35.7993" rx="12.5" ry="12.5" style="stroke:#5C78C8;stroke-width:1;" width="56.531" x="229.981" y="203.5986"/><text fill="#000000" font-family="Verdana" font-size="13" lengthAdjust="spacing" textLength="36.531" x="239.981" y="226.6685">&#52636;&#47141;: i</text><rect fill="#E8EDF8" height="35.7993" rx="12.5" ry="12.5" style="stroke:#5C78C8;stroke-width:1;" width="44.8447" x="235.8241" y="264.9983"/><text fill="#000000" font-family="Verdana" font-size="13" lengthAdjust="spacing" textLength="24.8447" x="245.8241" y="288.0681">i++</text><polygon fill="#E8EDF8" points="167.1941,306.7976,179.1941,318.7976,167.1941,330.7976,155.1941,318.7976,167.1941,306.7976" style="stroke:#5C78C8;stroke-width:1;stroke-linejoin:miter;stroke-miterlimit:10;"/><polygon fill="#E8EDF8" points="147.8433,105.7993,186.5449,105.7993,198.5449,117.7993,186.5449,129.7993,147.8433,129.7993,135.8433,117.7993,147.8433,105.7993" style="stroke:#5C78C8;stroke-width:1;stroke-linejoin:miter;stroke-miterlimit:10;"/><text fill="#000000" font-family="Verdana" font-size="13" lengthAdjust="spacing" textLength="26.6411" x="171.1941" y="142.8691">true</text><text fill="#000000" font-family="Verdana" font-size="13" lengthAdjust="spacing" textLength="38.7017" x="147.8433" y="122.9695">i &lt; 5?</text><text fill="#000000" font-family="Verdana" font-size="13" lengthAdjust="spacing" textLength="30.4624" x="105.3809" y="115.0698">false</text><ellipse cx="24" cy="164.7993" fill="none" rx="11" ry="11" style="stroke:#000000;stroke-width:1;"/><ellipse cx="24" cy="164.7993" fill="#FFFFFF" rx="6" ry="6" style="stroke:#000000;stroke-width:1;"/><line style="stroke:#333333;stroke-width:1;" x1="167.1941" x2="167.1941" y1="30" y2="50"/><polygon fill="#333333" points="163.1941,40,167.1941,50,171.1941,40,167.1941,44" style="stroke:#333333;stroke-width:1;stroke-linejoin:miter;stroke-miterlimit:10;"/><line style="stroke:#333333;stroke-width:1;" x1="258.2465" x2="258.2465" y1="239.3979" y2="264.9983"/><polygon fill="#333333" points="254.2465,254.9983,258.2465,264.9983,262.2465,254.9983,258.2465,258.9983" style="stroke:#333333;stroke-width:1;stroke-linejoin:miter;stroke-miterlimit:10;"/><line style="stroke:#333333;stroke-width:1;" x1="130.5239" x2="67.4224" y1="181.5986" y2="181.5986"/><line style="stroke:#333333;stroke-width:1;" x1="67.4224" x2="67.4224" y1="181.5986" y2="203.5986"/><polygon fill="#333333" points="63.4224,193.5986,67.4224,203.5986,71.4224,193.5986,67.4224,197.5986" style="stroke:#333333;stroke-width:1;stroke-linejoin:miter;stroke-miterlimit:10;"/><line style="stroke:#333333;stroke-width:1;" x1="203.8643" x2="258.2465" y1="181.5986" y2="181.5986"/><line style="stroke:#333333;stroke-width:1;" x1="258.2465" x2="258.2465" y1="181.5986" y2="203.5986"/><polygon fill="#333333" points="254.2465,193.5986,258.2465,203.5986,262.2465,193.5986,258.2465,197.5986" style="stroke:#333333;stroke-width:1;stroke-linejoin:miter;stroke-miterlimit:10;"/><line style="stroke:#333333;stroke-width:1;" x1="67.4224" x2="67.4224" y1="239.3979" y2="318.7976"/><line style="stroke:#333333;stroke-width:1;" x1="67.4224" x2="155.1941" y1="318.7976" y2="318.7976"/><polygon fill="#333333" points="145.1941,314.7976,155.1941,318.7976,145.1941,322.7976,149.1941,318.7976" style="stroke:#333333;stroke-width:1;stroke-linejoin:miter;stroke-miterlimit:10;"/><line style="stroke:#333333;stroke-width:1;" x1="258.2465" x2="258.2465" y1="300.7976" y2="318.7976"/><line style="stroke:#333333;stroke-width:1;" x1="258.2465" x2="179.1941" y1="318.7976" y2="318.7976"/><polygon fill="#333333" points="189.1941,314.7976,179.1941,318.7976,189.1941,322.7976,185.1941,318.7976" style="stroke:#333333;stroke-width:1;stroke-linejoin:miter;stroke-miterlimit:10;"/><line style="stroke:#333333;stroke-width:1;" x1="167.1941" x2="167.1941" y1="129.7993" y2="169.5986"/><polygon fill="#333333" points="163.1941,159.5986,167.1941,169.5986,171.1941,159.5986,167.1941,163.5986" style="stroke:#333333;stroke-width:1;stroke-linejoin:miter;stroke-miterlimit:10;"/><line style="stroke:#333333;stroke-width:1;" x1="167.1941" x2="167.1941" y1="330.7976" y2="340.7976"/><line style="stroke:#333333;stroke-width:1;" x1="167.1941" x2="300.512" y1="340.7976" y2="340.7976"/><polygon fill="#333333" points="296.512,244.9983,300.512,234.9983,304.512,244.9983,300.512,240.9983" style="stroke:#333333;stroke-width:1;stroke-linejoin:miter;stroke-miterlimit:10;"/><line style="stroke:#333333;stroke-width:1;" x1="300.512" x2="300.512" y1="117.7993" y2="340.7976"/><line style="stroke:#333333;stroke-width:1;" x1="300.512" x2="198.5449" y1="117.7993" y2="117.7993"/><polygon fill="#333333" points="208.5449,113.7993,198.5449,117.7993,208.5449,121.7993,204.5449,117.7993" style="stroke:#333333;stroke-width:1;stroke-linejoin:miter;stroke-miterlimit:10;"/><line style="stroke:#333333;stroke-width:1;" x1="135.8433" x2="24" y1="117.7993" y2="117.7993"/><line style="stroke:#333333;stroke-width:1;" x1="24" x2="24" y1="117.7993" y2="153.7993"/><polygon fill="#333333" points="20,143.7993,24,153.7993,28,143.7993,24,147.7993" style="stroke:#333333;stroke-width:1;stroke-linejoin:miter;stroke-miterlimit:10;"/><line style="stroke:#333333;stroke-width:1;" x1="167.1941" x2="167.1941" y1="85.7993" y2="105.7993"/><polygon fill="#333333" points="163.1941,95.7993,167.1941,105.7993,171.1941,95.7993,167.1941,99.7993" style="stroke:#333333;stroke-width:1;stroke-linejoin:miter;stroke-miterlimit:10;"/><?plantuml-src XP1DQiCm58JtEiMKRcooQJ6Xngu9hPDSe2SGiHm_Oaj6bXlILHTTv0XTfD1Dz_r9UwWgXwWIN4WW42s4UFFDcq5dfX2LG5roagoPaQovvXM68kTjQSPAcZjw4BWCziIRYQ5xCejRFfbDjMfbbgfIQPoFmj5m71uZbSw4xgX-UXMc1vJMQjw9mUxiDo5UAPcTple7ZqInnd1jM4H8S16pUK6bW4UuHd_WWnfuHhV2Pm3bstcI8722-ne9Ro6QhG94rEl5kvTKHa3Jj30HDYzh-xc4VN-sNz_u_LZRfwLTFJfEb8rBaQfpRtvMzlKj0iK7suJCA6VkxbhbtDbyrrZLVm00?></g></svg>