<svg xmlns="http://www.w3.org/2000/svg" xmlns:xlink="http://www.w3.org/1999/xlink" contentStyleType="text/css" data-diagram-type="ACTIVITY" height="222px" preserveAspectRatio="none" style="width:487px;height:222px;background:#FFFFFF;" version="1.1" viewBox="0 0 487 222" width="487px" zoomAndPan="magnify"><?plantuml 1.2026.6?><defs/><g><ellipse cx="246.4142" cy="20" fill="#FFFFFF" rx="10" ry="10" style="stroke:#000000;stroke-width:1;"/><polygon fill="#E8EDF8" points="32,50,120.7656,50,132.7656,62,120.7656,74,32,74,20,62,32,50" style="stroke:#5C78C8;stroke-width:1;stroke-linejoin:miter;stroke-miterlimit:10;"/><text fill="#000000" font-family="Verdana" font-size="13" lengthAdjust="spacing" textLength="26.6411" x="80.3828" y="87.0698">true</text><text fill="#000000" font-family="Verdana" font-size="13" lengthAdjust="spacing" textLength="88.7656" x="32" y="67.1702">score &gt;= 90?</text><rect fill="#E8EDF8" height="35.7993" rx="12.5" ry="12.5" style="stroke:#5C78C8;stroke-width:1;" width="55.947" x="48.4093" y="109.7993"/><text fill="#000000" font-family="Verdana" font-size="13" lengthAdjust="spacing" textLength="35.947" x="58.4093" y="132.8691">A &#52636;&#47141;</text><polygon fill="#E8EDF8" points="164.7656,50,253.5313,50,265.5313,62,253.5313,74,164.7656,74,152.7656,62,164.7656,50" style="stroke:#5C78C8;stroke-width:1;stroke-linejoin:miter;stroke-miterlimit:10;"/><text fill="#000000" font-family="Verdana" font-size="13" lengthAdjust="spacing" textLength="26.6411" x="213.1484" y="87.0698">true</text><text fill="#000000" font-family="Verdana" font-size="13" lengthAdjust="spacing" textLength="88.7656" x="164.7656" y="67.1702">score &gt;= 80?</text><rect fill="#E8EDF8" height="35.7993" rx="12.5" ry="12.5" style="stroke:#5C78C8;stroke-width:1;" width="55.9724" x="181.1622" y="109.7993"/><text fill="#000000" font-family="Verdana" font-size="13" lengthAdjust="spacing" textLength="35.9724" x="191.1622" y="132.8691">B &#52636;&#47141;</text><polygon fill="#E8EDF8" points="297.5313,50,386.2969,50,398.2969,62,386.2969,74,297.5313,74,285.5313,62,297.5313,50" style="stroke:#5C78C8;stroke-width:1;stroke-linejoin:miter;stroke-miterlimit:10;"/><text fill="#000000" font-family="Verdana" font-size="13" lengthAdjust="spacing" textLength="26.6411" x="345.9141" y="87.0698">true</text><text fill="#000000" font-family="Verdana" font-size="13" lengthAdjust="spacing" textLength="88.7656" x="297.5313" y="67.1702">score &gt;= 70?</text><text fill="#000000" font-family="Verdana" font-size="13" lengthAdjust="spacing" textLength="30.4624" x="398.2969" y="59.2705">false</text><rect fill="#E8EDF8" height="35.7993" rx="12.5" ry="12.5" style="stroke:#5C78C8;stroke-width:1;" width="56.1375" x="313.8453" y="109.7993"/><text fill="#000000" font-family="Verdana" font-size="13" lengthAdjust="spacing" textLength="36.1375" x="323.8453" y="132.8691">C &#52636;&#47141;</text><rect fill="#E8EDF8" height="35.7993" rx="12.5" ry="12.5" style="stroke:#5C78C8;stroke-width:1;" width="54.5315" x="418.2969" y="104.8997"/><text fill="#000000" font-family="Verdana" font-size="13" lengthAdjust="spacing" textLength="34.5315" x="428.2969" y="127.9695">F &#52636;&#47141;</text><ellipse cx="246.4142" cy="196.5986" fill="none" rx="11" ry="11" style="stroke:#000000;stroke-width:1;"/><ellipse cx="246.4142" cy="196.5986" fill="#FFFFFF" rx="6" ry="6" style="stroke:#000000;stroke-width:1;"/><line style="stroke:#333333;stroke-width:1;" x1="76.3828" x2="76.3828" y1="74" y2="109.7993"/><polygon fill="#333333" points="72.3828,99.7993,76.3828,109.7993,80.3828,99.7993,76.3828,103.7993" style="stroke:#333333;stroke-width:1;stroke-linejoin:miter;stroke-miterlimit:10;"/><line style="stroke:#333333;stroke-width:1;" x1="76.3828" x2="76.3828" y1="145.5986" y2="165.5986"/><polygon fill="#333333" points="72.3828,155.5986,76.3828,165.5986,80.3828,155.5986,76.3828,159.5986" style="stroke:#333333;stroke-width:1;stroke-linejoin:miter;stroke-miterlimit:10;"/><line style="stroke:#333333;stroke-width:1;" x1="209.1484" x2="209.1484" y1="74" y2="109.7993"/><polygon fill="#333333" points="205.1484,99.7993,209.1484,109.7993,213.1484,99.7993,209.1484,103.7993" style="stroke:#333333;stroke-width:1;stroke-linejoin:miter;stroke-miterlimit:10;"/><line style="stroke:#333333;stroke-width:1;" x1="209.1484" x2="209.1484" y1="145.5986" y2="165.5986"/><polygon fill="#333333" points="205.1484,155.5986,209.1484,165.5986,213.1484,155.5986,209.1484,159.5986" style="stroke:#333333;stroke-width:1;stroke-linejoin:miter;stroke-miterlimit:10;"/><line style="stroke:#333333;stroke-width:1;" x1="341.9141" x2="341.9141" y1="74" y2="109.7993"/><polygon fill="#333333" points="337.9141,99.7993,341.9141,109.7993,345.9141,99.7993,341.9141,103.7993" style="stroke:#333333;stroke-width:1;stroke-linejoin:miter;stroke-miterlimit:10;"/><line style="stroke:#333333;stroke-width:1;" x1="341.9141" x2="341.9141" y1="145.5986" y2="165.5986"/><polygon fill="#333333" points="337.9141,155.5986,341.9141,165.5986,345.9141,155.5986,341.9141,159.5986" style="stroke:#333333;stroke-width:1;stroke-linejoin:miter;stroke-miterlimit:10;"/><line style="stroke:#333333;stroke-width:1;" x1="132.7656" x2="152.7656" y1="62" y2="62"/><polygon fill="#333333" points="142.7656,58,152.7656,62,142.7656,66,146.7656,62" style="stroke:#333333;stroke-width:1;stroke-linejoin:miter;stroke-miterlimit:10;"/><line style="stroke:#333333;stroke-width:1;" x1="265.5313" x2="285.5313" y1="62" y2="62"/><polygon fill="#333333" points="275.5313,58,285.5313,62,275.5313,66,279.5313,62" style="stroke:#333333;stroke-width:1;stroke-linejoin:miter;stroke-miterlimit:10;"/><line style="stroke:#333333;stroke-width:1;" x1="246.4142" x2="246.4142" y1="30" y2="35"/><line style="stroke:#333333;stroke-width:1;" x1="246.4142" x2="76.3828" y1="35" y2="35"/><line style="stroke:#333333;stroke-width:1;" x1="76.3828" x2="76.3828" y1="35" y2="50"/><polygon fill="#333333" points="72.3828,40,76.3828,50,80.3828,40,76.3828,44" style="stroke:#333333;stroke-width:1;stroke-linejoin:miter;stroke-miterlimit:10;"/><line style="stroke:#333333;stroke-width:1;" x1="398.2969" x2="445.5626" y1="62" y2="62"/><line style="stroke:#333333;stroke-width:1;" x1="445.5626" x2="445.5626" y1="62" y2="104.8997"/><polygon fill="#333333" points="441.5626,94.8997,445.5626,104.8997,449.5626,94.8997,445.5626,98.8997" style="stroke:#333333;stroke-width:1;stroke-linejoin:miter;stroke-miterlimit:10;"/><line style="stroke:#333333;stroke-width:1;" x1="445.5626" x2="445.5626" y1="140.699" y2="165.5986"/><polygon fill="#333333" points="441.5626,155.5986,445.5626,165.5986,449.5626,155.5986,445.5626,159.5986" style="stroke:#333333;stroke-width:1;stroke-linejoin:miter;stroke-miterlimit:10;"/><line style="stroke:#333333;stroke-width:1;" x1="76.3828" x2="445.5626" y1="165.5986" y2="165.5986"/><line style="stroke:#333333;stroke-width:1;" x1="246.4142" x2="246.4142" y1="165.5986" y2="185.5986"/><polygon fill="#333333" points="242.4142,175.5986,246.4142,185.5986,250.4142,175.5986,246.4142,179.5986" style="stroke:#333333;stroke-width:1;stroke-linejoin:miter;stroke-miterlimit:10;"/><?plantuml-src XSzF2e9G40Rm_Jl5H1lT5H9QKL7-kK0dUEXO3_MDZC-YpjAYJLVeKdM898eIZ6OpY-y7tqpFRB50A7EfjAWofKl9ie00Krdd9Y9jrkg8C7I-mcLir4wPmqh6sOQfrebFEJ7qGoyC8gzB4YV8BpNoNSzlAMRQlqBdET-NA5cGJlvtlM57bQYCP2DK2bOL4oFCPp0UB6nedjTW6QxH5W2J9TolfzlvCXMOLzZYNWTV_UPk1_TR7AnKDkkPH9z49ofjpgNo0G00?></g></svg>