<svg xmlns="http://www.w3.org/2000/svg" xmlns:xlink="http://www.w3.org/1999/xlink" contentStyleType="text/css" data-diagram-type="DESCRIPTION" height="433px" preserveAspectRatio="none" style="width:669px;height:433px;background:#FFFFFF;" version="1.1" viewBox="0 0 669 433" width="669px" zoomAndPan="magnify"><?plantuml 1.2026.6?><defs/><g><!--cluster VM--><g class="cluster" data-qualified-name="VM" data-source-line="20" id="ent0001"><rect fill="#FFF8F0" height="412" rx="6" ry="6" style="stroke:#999999;stroke-width:1;" width="304" x="7" y="7"/><path d="M36.305,7 L36.305,15.6 L26.305,25.6 L7,25.6" fill="none" style="stroke:#999999;stroke-width:1;"/><text fill="#333333" font-family="'Apple SD Gothic Neo'" font-size="13" font-weight="700" lengthAdjust="spacing" textLength="19.305" x="10" y="19.7">VM</text></g><!--cluster C--><g class="cluster" data-qualified-name="C" data-source-line="37" id="ent0021"><rect fill="#F0F5FF" height="252.8" rx="6" ry="6" style="stroke:#999999;stroke-width:1;" width="304" x="351" y="7"/><path d="M417.329,7 L417.329,15.6 L407.329,25.6 L351,25.6" fill="none" style="stroke:#999999;stroke-width:1;"/><text fill="#333333" font-family="'Apple SD Gothic Neo'" font-size="13" font-weight="700" lengthAdjust="spacing" textLength="56.329" x="354" y="19.7">Container</text></g><!--entity VMHW--><g class="entity" data-qualified-name="VM.VMHW" data-source-line="21" id="ent0002"><rect fill="#ECEFF1" height="35.6" rx="6" ry="6" style="stroke:#5C78C8;stroke-width:0.5;" width="64.98" x="104.51" y="359.4"/><text fill="#333333" font-family="'Apple SD Gothic Neo'" font-size="13" lengthAdjust="spacing" textLength="44.98" x="114.51" y="381.1">&#54616;&#46300;&#50920;&#50612;</text></g><!--entity VMOS--><g class="entity" data-qualified-name="VM.VMOS" data-source-line="22" id="ent0003"><rect fill="#ECEFF1" height="35.6" rx="6" ry="6" style="stroke:#5C78C8;stroke-width:0.5;" width="64.98" x="104.51" y="283.8"/><text fill="#333333" font-family="'Apple SD Gothic Neo'" font-size="13" lengthAdjust="spacing" textLength="44.98" x="114.51" y="305.5">&#50868;&#50689;&#52404;&#51228;</text></g><!--entity VMHV--><g class="entity" data-qualified-name="VM.VMHV" data-source-line="23" id="ent0004"><rect fill="#FFF3E0" height="35.6" rx="6" ry="6" style="stroke:#5C78C8;stroke-width:0.5;" width="113.379" x="80.31" y="200.2"/><text fill="#333333" font-family="'Apple SD Gothic Neo'" font-size="13" lengthAdjust="spacing" textLength="93.379" x="90.31" y="221.9">&#44032;&#49345;&#54868; &#49548;&#54532;&#53944;&#50920;&#50612;</text></g><!--entity VMOS1--><g class="entity" data-qualified-name="VM.VMOS1" data-source-line="24" id="ent0005"><rect fill="#E3F2FD" height="35.6" rx="6" ry="6" style="stroke:#5C78C8;stroke-width:0.5;" width="76.264" x="166.87" y="124.6"/><text fill="#333333" font-family="'Apple SD Gothic Neo'" font-size="13" lengthAdjust="spacing" textLength="56.264" x="176.87" y="146.3">&#50868;&#50689;&#52404;&#51228; A</text></g><!--entity VMOS2--><g class="entity" data-qualified-name="VM.VMOS2" data-source-line="25" id="ent0006"><rect fill="#E3F2FD" height="35.6" rx="6" ry="6" style="stroke:#5C78C8;stroke-width:0.5;" width="76.017" x="30.99" y="124.6"/><text fill="#333333" font-family="'Apple SD Gothic Neo'" font-size="13" lengthAdjust="spacing" textLength="56.017" x="40.99" y="146.3">&#50868;&#50689;&#52404;&#51228; B</text></g><!--entity VMApp1--><g class="entity" data-qualified-name="VM.VMApp1" data-source-line="26" id="ent0007"><rect fill="#E8F5E9" height="35.6" rx="6" ry="6" style="stroke:#5C78C8;stroke-width:0.5;" width="76.264" x="166.87" y="49"/><text fill="#333333" font-family="'Apple SD Gothic Neo'" font-size="13" lengthAdjust="spacing" textLength="56.264" x="176.87" y="70.7">&#54532;&#47196;&#44536;&#47016; A</text></g><!--entity VMApp2--><g class="entity" data-qualified-name="VM.VMApp2" data-source-line="27" id="ent0008"><rect fill="#E8F5E9" height="35.6" rx="6" ry="6" style="stroke:#5C78C8;stroke-width:0.5;" width="76.017" x="30.99" y="49"/><text fill="#333333" font-family="'Apple SD Gothic Neo'" font-size="13" lengthAdjust="spacing" textLength="56.017" x="40.99" y="70.7">&#54532;&#47196;&#44536;&#47016; B</text></g><!--entity CHW--><g class="entity" data-qualified-name="C.CHW" data-source-line="38" id="ent0022"><rect fill="#ECEFF1" height="35.6" rx="6" ry="6" style="stroke:#5C78C8;stroke-width:0.5;" width="64.98" x="448.51" y="200.2"/><text fill="#333333" font-family="'Apple SD Gothic Neo'" font-size="13" lengthAdjust="spacing" textLength="44.98" x="458.51" y="221.9">&#54616;&#46300;&#50920;&#50612;</text></g><!--entity COS--><g class="entity" data-qualified-name="C.COS" data-source-line="39" id="ent0023"><rect fill="#ECEFF1" height="35.6" rx="6" ry="6" style="stroke:#5C78C8;stroke-width:0.5;" width="64.98" x="448.51" y="124.6"/><text fill="#333333" font-family="'Apple SD Gothic Neo'" font-size="13" lengthAdjust="spacing" textLength="44.98" x="458.51" y="146.3">&#50868;&#50689;&#52404;&#51228;</text></g><!--entity CApp1--><g class="entity" data-qualified-name="C.CApp1" data-source-line="40" id="ent0024"><rect fill="#E8F5E9" height="35.6" rx="6" ry="6" style="stroke:#5C78C8;stroke-width:0.5;" width="76.264" x="510.87" y="49"/><text fill="#333333" font-family="'Apple SD Gothic Neo'" font-size="13" lengthAdjust="spacing" textLength="56.264" x="520.87" y="70.7">&#54532;&#47196;&#44536;&#47016; A</text></g><!--entity CApp2--><g class="entity" data-qualified-name="C.CApp2" data-source-line="41" id="ent0025"><rect fill="#E8F5E9" height="35.6" rx="6" ry="6" style="stroke:#5C78C8;stroke-width:0.5;" width="76.017" x="374.99" y="49"/><text fill="#333333" font-family="'Apple SD Gothic Neo'" font-size="13" lengthAdjust="spacing" textLength="56.017" x="384.99" y="70.7">&#54532;&#47196;&#44536;&#47016; B</text></g><!--reverse link VMOS to VMHW--><g class="link" data-entity-1="ent0003" data-entity-2="ent0002" data-link-type="dependency" data-source-line="29" id="lnk10"><path d="M137,324.52 C137,336.48 137,347.16 137,359.15" fill="none" id="VMOS-backto-VMHW" style="stroke:#5C78C8;stroke-width:1;"/><polygon fill="#5C78C8" points="137,319.52,133,328.52,137,324.52,141,328.52,137,319.52" style="stroke:#5C78C8;stroke-width:1;stroke-linejoin:miter;stroke-miterlimit:10;"/></g><!--reverse link VMHV to VMOS--><g class="link" data-entity-1="ent0004" data-entity-2="ent0003" data-link-type="dependency" data-source-line="30" id="lnk12"><path d="M137,241.14 C137,255.16 137,269.48 137,283.5" fill="none" id="VMHV-backto-VMOS" style="stroke:#5C78C8;stroke-width:1;"/><polygon fill="#5C78C8" points="137,236.14,133,245.14,137,241.14,141,245.14,137,236.14" style="stroke:#5C78C8;stroke-width:1;stroke-linejoin:miter;stroke-miterlimit:10;"/></g><!--reverse link VMOS1 to VMHV--><g class="link" data-entity-1="ent0005" data-entity-2="ent0004" data-link-type="dependency" data-source-line="31" id="lnk14"><path d="M180.28,165.32 C180.28,177.28 180.28,187.96 180.28,199.95" fill="none" id="VMOS1-backto-VMHV" style="stroke:#5C78C8;stroke-width:1;"/><polygon fill="#5C78C8" points="180.28,160.32,176.28,169.32,180.28,165.32,184.28,169.32,180.28,160.32" style="stroke:#5C78C8;stroke-width:1;stroke-linejoin:miter;stroke-miterlimit:10;"/></g><!--reverse link VMOS2 to VMHV--><g class="link" data-entity-1="ent0006" data-entity-2="ent0004" data-link-type="dependency" data-source-line="32" id="lnk16"><path d="M93.66,165.32 C93.66,177.28 93.66,187.96 93.66,199.95" fill="none" id="VMOS2-backto-VMHV" style="stroke:#5C78C8;stroke-width:1;"/><polygon fill="#5C78C8" points="93.66,160.32,89.66,169.32,93.66,165.32,97.66,169.32,93.66,160.32" style="stroke:#5C78C8;stroke-width:1;stroke-linejoin:miter;stroke-miterlimit:10;"/></g><!--reverse link VMApp1 to VMOS1--><g class="link" data-entity-1="ent0007" data-entity-2="ent0005" data-link-type="dependency" data-source-line="33" id="lnk18"><path d="M205,89.72 C205,101.68 205,112.36 205,124.35" fill="none" id="VMApp1-backto-VMOS1" style="stroke:#5C78C8;stroke-width:1;"/><polygon fill="#5C78C8" points="205,84.72,201,93.72,205,89.72,209,93.72,205,84.72" style="stroke:#5C78C8;stroke-width:1;stroke-linejoin:miter;stroke-miterlimit:10;"/></g><!--reverse link VMApp2 to VMOS2--><g class="link" data-entity-1="ent0008" data-entity-2="ent0006" data-link-type="dependency" data-source-line="34" id="lnk20"><path d="M69,89.72 C69,101.68 69,112.36 69,124.35" fill="none" id="VMApp2-backto-VMOS2" style="stroke:#5C78C8;stroke-width:1;"/><polygon fill="#5C78C8" points="69,84.72,65,93.72,69,89.72,73,93.72,69,84.72" style="stroke:#5C78C8;stroke-width:1;stroke-linejoin:miter;stroke-miterlimit:10;"/></g><!--reverse link COS to CHW--><g class="link" data-entity-1="ent0023" data-entity-2="ent0022" data-link-type="dependency" data-source-line="43" id="lnk27"><path d="M481,165.32 C481,177.28 481,187.96 481,199.95" fill="none" id="COS-backto-CHW" style="stroke:#5C78C8;stroke-width:1;"/><polygon fill="#5C78C8" points="481,160.32,477,169.32,481,165.32,485,169.32,481,160.32" style="stroke:#5C78C8;stroke-width:1;stroke-linejoin:miter;stroke-miterlimit:10;"/></g><!--reverse link CApp1 to COS--><g class="link" data-entity-1="ent0024" data-entity-2="ent0023" data-link-type="dependency" data-source-line="44" id="lnk29"><path d="M505.58,61 C494.78,61 490.91,61 490.91,61 C490.91,61 490.91,100.35 490.91,124.33" fill="none" id="CApp1-backto-COS" style="stroke:#5C78C8;stroke-width:1;"/><polygon fill="#5C78C8" points="510.58,61,501.58,57,505.58,61,501.58,65,510.58,61" style="stroke:#5C78C8;stroke-width:1;stroke-linejoin:miter;stroke-miterlimit:10;"/></g><!--reverse link CApp2 to COS--><g class="link" data-entity-1="ent0025" data-entity-2="ent0023" data-link-type="dependency" data-source-line="45" id="lnk31"><path d="M456.34,73 C467.12,73 470.96,73 470.96,73 C470.96,73 470.96,103.6 470.96,124.17" fill="none" id="CApp2-backto-COS" style="stroke:#5C78C8;stroke-width:1;"/><polygon fill="#5C78C8" points="451.34,73,460.34,77,456.34,73,460.34,69,451.34,73" style="stroke:#5C78C8;stroke-width:1;stroke-linejoin:miter;stroke-miterlimit:10;"/></g><!--link VM to C--><?plantuml-src bPFDJjj058NtUOehiuuKEmqacqh994Csm2AIkwYw6E99RCMPiSQE422aebPTLDr1AtuY13kM24M2PoBEEtGyCSwaDG5cUUutvrwVEmu77Wk884FmFKQZ_O025v7B2s5MODoX8GrWlQI9Wh118dxGnIRjaP4VOSwYRJAaODI3mAVGQS8cZrol2zkK6_bynpkWO9QrOkWIX-zvh0yzueTKxyr7pEbomQW0qz8ATI7u7k8-5x1MGHjLLDLlqMv4MD-d3T8Tz9L7Yk8ghc6KYtBXKF6g8nmM09AlICcoEeKZZUs9991yRgvredtfjCjzHmfBZMlgIBl2tCMmjmmW8TXRSdOifoyfuyKunkptsVHa75_UndycATh-16ijrCBON4RZYqbyTXpVJ-BhSOhkTFBHfxklyRVZsVafn3z-pKw_ptu-BhUmrJpbLkdb5b3FcfYoInbRkBc2RcIqbK_BCQOtuwU7n-dLRUOjdrrYNiMLLcq5tbZWLePBNeLL70N5ZwgpKcGcpqhRdZEsnfZ_IrPwpyoqPAnKj7JHqbQBv4iWyayKQZOa0otX2iQlBXYzUR_efVNcH8dUbIJwDqYKvOXKZ2XB4QLPB2ig2FcgYvzTpt4e-oAylXibnRy0?></g></svg>